<?xml version="1.0" encoding="utf-8"?>
<!-- Generator: Adobe Illustrator 17.0.0, SVG Export Plug-In . SVG Version: 6.00 Build 0)  -->
<svg version="1.2" baseProfile="tiny" id="Layer_1" xmlns="http://www.w3.org/2000/svg" xmlns:xlink="http://www.w3.org/1999/xlink"
	 x="0px" y="0px" width="723.256px" height="348.837px" viewBox="0 0 723.256 348.837" xml:space="preserve">
<path d="M433.502,125.022h7.903c30.837,0,55.836-24.998,55.836-55.836c0-30.837-24.999-55.835-55.836-55.835H229.19l36.483,35.026
	h175.732v0.07c11.454,0,20.739,9.285,20.739,20.739c0,11.454-9.285,20.739-20.739,20.739v0.07H218.728l36.483,35.027h124.705
	l81.99,78.204l53.874-0.054L433.502,125.022z"/>
<polygon points="361.664,168.172 208.267,168.172 244.749,203.199 398.64,203.199 "/>
<rect x="11.023" y="280.127" width="48.078" height="4.897"/>
<polygon points="128.045,325.548 107.538,279.024 101.416,279.024 125.136,332.587 130.723,332.587 154.443,279.024 
	148.704,279.024 "/>
<rect x="200.431" y="280.127" width="48.078" height="4.897"/>
<path d="M338.839,307.987c2.115-2.882,3.176-6.416,3.176-10.599c0-5.713-1.94-10.202-5.816-13.467
	c-3.878-3.263-9.234-4.897-16.069-4.897h-20.909v4.897h20.755c5.305,0,9.36,1.16,12.168,3.482c2.804,2.321,4.207,5.649,4.207,9.985
	c0,4.235-1.403,7.525-4.207,9.872c-2.808,2.346-6.863,3.519-12.168,3.519h-19.894v21.807h5.661v-16.987h14.387
	c1.477,0,2.907-0.077,4.285-0.229l12.242,17.216h6.2l-13.087-18.365C333.698,312.949,336.722,310.869,338.839,307.987"/>
<polygon points="408.661,309.096 390.299,279.024 384.253,279.024 405.677,314.07 405.677,332.587 411.264,332.587 411.264,314.07 
	432.687,279.024 427.026,279.024 "/>
<polygon points="571.875,331.831 618.449,331.831 618.449,321.883 584.223,321.883 584.223,310.518 618.449,310.518 
	618.449,300.876 571.875,300.876 "/>
<rect x="571.875" y="279.564" width="46.574" height="9.948"/>
<path d="M710.191,288.131c-1.888-2.909-4.578-5.154-8.073-6.735c-3.494-1.579-7.612-2.371-12.357-2.371h-24.045v10.1h23.355
	c3.724,0,6.556,0.804,8.494,2.411c1.938,1.607,2.909,3.916,2.909,6.924c0,2.96-0.971,5.241-2.909,6.848
	c-1.938,1.606-4.77,2.411-8.494,2.411h-22.494v24.868h12.394v-14.768h10.79c4.745,0,8.863-0.777,12.357-2.334
	c3.495-1.554,6.185-3.798,8.073-6.732c1.888-2.935,2.832-6.365,2.832-10.293C713.023,294.48,712.079,291.038,710.191,288.131"/>
<path d="M521.16,308.752c1.913-2.882,2.869-6.314,2.869-10.292c0-3.98-0.944-7.423-2.832-10.33
	c-1.888-2.909-4.578-5.153-8.072-6.735c-3.495-1.579-7.612-2.371-12.357-2.371h-24.046v10.1h23.356c3.723,0,6.555,0.805,8.493,2.411
	c1.938,1.607,2.91,3.916,2.91,6.925c0,2.959-0.972,5.253-2.91,6.887c-1.938,1.632-4.77,2.448-8.493,2.448h-22.495v24.792h12.394
	v-14.92h10.791h0.612l10.33,14.92h13.313L513.01,315.37C516.53,313.841,519.247,311.634,521.16,308.752"/>
<polygon points="11.023,302.973 11.023,331.689 59.101,331.689 59.101,326.792 16.486,326.792 16.486,307.795 59.101,307.795 
	59.101,302.973 "/>
<polygon points="200.431,302.973 200.431,331.689 248.509,331.689 248.509,326.792 205.894,326.792 205.894,307.795 
	248.509,307.795 248.509,302.973 "/>
</svg>
